<svg width="16" height="110" viewBox="0 0 16 110" fill="none" xmlns="http://www.w3.org/2000/svg">
<path d="M7.64645 109.354C7.84171 109.549 8.1583 109.549 8.35356 109.354L11.5355 106.172C11.7308 105.976 11.7308 105.66 11.5355 105.464C11.3403 105.269 11.0237 105.269 10.8284 105.464L8 108.293L5.17158 105.464C4.97632 105.269 4.65973 105.269 4.46447 105.464C4.26921 105.66 4.26921 105.976 4.46447 106.172L7.64645 109.354ZM7.5 2.18557e-08L7.5 2.47727L8.5 2.47727L8.5 -2.18557e-08L7.5 2.18557e-08ZM7.5 7.43182L7.5 12.3864L8.5 12.3864L8.5 7.43182L7.5 7.43182ZM7.5 17.3409L7.5 22.2955L8.5 22.2955L8.5 17.3409L7.5 17.3409ZM7.5 27.25L7.5 32.2045L8.5 32.2045L8.5 27.25L7.5 27.25ZM7.5 37.1591L7.5 42.1136L8.5 42.1136L8.5 37.1591L7.5 37.1591ZM7.5 47.0682L7.5 52.0227L8.5 52.0227L8.5 47.0682L7.5 47.0682ZM7.5 56.9773L7.5 61.9318L8.5 61.9318L8.5 56.9773L7.5 56.9773ZM7.5 66.8864L7.5 71.8409L8.5 71.8409L8.5 66.8864L7.5 66.8864ZM7.5 76.7954L7.5 81.75L8.5 81.75L8.5 76.7954L7.5 76.7954ZM7.5 86.7045L7.5 91.6591L8.5 91.6591L8.5 86.7045L7.5 86.7045ZM7.5 96.6136L7.5 101.568L8.5 101.568L8.5 96.6136L7.5 96.6136ZM7.5 106.523L7.5 109L8.5 109L8.5 106.523L7.5 106.523ZM7.2929 109.707C7.68342 110.098 8.31659 110.098 8.70711 109.707L15.0711 103.343C15.4616 102.953 15.4616 102.319 15.0711 101.929C14.6805 101.538 14.0474 101.538 13.6569 101.929L8 107.586L2.34315 101.929C1.95263 101.538 1.31946 101.538 0.928937 101.929C0.538412 102.319 0.538412 102.953 0.928937 103.343L7.2929 109.707ZM7 4.37114e-08L7 2.47727L9 2.47727L9 -4.37114e-08L7 4.37114e-08ZM7 7.43182L7 12.3864L9 12.3864L9 7.43182L7 7.43182ZM7 17.3409L7 22.2955L9 22.2955L9 17.3409L7 17.3409ZM7 27.25L7 32.2045L9 32.2045L9 27.25L7 27.25ZM7 37.1591L7 42.1136L9 42.1136L9 37.1591L7 37.1591ZM7 47.0682L7 52.0227L9 52.0227L9 47.0682L7 47.0682ZM7 56.9773L7 61.9318L9 61.9318L9 56.9773L7 56.9773ZM7 66.8864L7 71.8409L9 71.8409L9 66.8864L7 66.8864ZM7 76.7954L7 81.75L9 81.75L9 76.7954L7 76.7954ZM7 86.7045L7 91.6591L9 91.6591L9 86.7045L7 86.7045ZM7 96.6136L7 101.568L9 101.568L9 96.6136L7 96.6136ZM7 106.523L7 109L9 109L9 106.523L7 106.523Z" fill="#FE7B5D"/>
</svg>
