<svg width="226" height="16" viewBox="0 0 226 16" fill="none" xmlns="http://www.w3.org/2000/svg">
<path d="M225.354 8.35353C225.549 8.15827 225.549 7.84169 225.354 7.64643L222.172 4.46445C221.976 4.26918 221.66 4.26918 221.464 4.46445C221.269 4.65971 221.269 4.97629 221.464 5.17155L224.293 7.99998L221.464 10.8284C221.269 11.0237 221.269 11.3403 221.464 11.5355C221.66 11.7308 221.976 11.7308 222.172 11.5355L225.354 8.35353ZM4.37114e-08 8.5L2.44565 8.5L2.44565 7.5L-4.37114e-08 7.5L4.37114e-08 8.5ZM7.33696 8.5L12.2283 8.5L12.2283 7.5L7.33696 7.5L7.33696 8.5ZM17.1196 8.5L22.0109 8.5L22.0109 7.5L17.1196 7.5L17.1196 8.5ZM26.9022 8.5L31.7935 8.5L31.7935 7.5L26.9022 7.5L26.9022 8.5ZM36.6848 8.5L41.5761 8.5L41.5761 7.5L36.6848 7.5L36.6848 8.5ZM46.4674 8.5L51.3587 8.5L51.3587 7.5L46.4674 7.5L46.4674 8.5ZM56.25 8.5L61.1413 8.49999L61.1413 7.49999L56.25 7.5L56.25 8.5ZM66.0326 8.49999L70.9239 8.49999L70.9239 7.49999L66.0326 7.49999L66.0326 8.49999ZM75.8152 8.49999L80.7065 8.49999L80.7065 7.49999L75.8152 7.49999L75.8152 8.49999ZM85.5978 8.49999L90.4891 8.49999L90.4891 7.49999L85.5978 7.49999L85.5978 8.49999ZM95.3804 8.49999L100.272 8.49999L100.272 7.49999L95.3804 7.49999L95.3804 8.49999ZM105.163 8.49999L110.054 8.49999L110.054 7.49999L105.163 7.49999L105.163 8.49999ZM114.946 8.49999L119.837 8.49999L119.837 7.49999L114.946 7.49999L114.946 8.49999ZM124.728 8.49999L129.62 8.49999L129.62 7.49999L124.728 7.49999L124.728 8.49999ZM134.511 8.49999L139.402 8.49999L139.402 7.49999L134.511 7.49999L134.511 8.49999ZM144.294 8.49999L149.185 8.49999L149.185 7.49999L144.294 7.49999L144.294 8.49999ZM154.076 8.49999L158.967 8.49999L158.967 7.49999L154.076 7.49999L154.076 8.49999ZM163.859 8.49999L168.75 8.49999L168.75 7.49999L163.859 7.49999L163.859 8.49999ZM173.641 8.49998L178.533 8.49998L178.533 7.49998L173.641 7.49998L173.641 8.49998ZM183.424 8.49998L188.315 8.49998L188.315 7.49998L183.424 7.49998L183.424 8.49998ZM193.207 8.49998L198.098 8.49998L198.098 7.49998L193.207 7.49998L193.207 8.49998ZM202.989 8.49998L207.881 8.49998L207.881 7.49998L202.989 7.49998L202.989 8.49998ZM212.772 8.49998L217.663 8.49998L217.663 7.49998L212.772 7.49998L212.772 8.49998ZM222.554 8.49998L225 8.49998L225 7.49998L222.554 7.49998L222.554 8.49998ZM225.707 8.70709C226.098 8.31656 226.098 7.6834 225.707 7.29287L219.343 0.928913C218.953 0.538389 218.319 0.538389 217.929 0.928913C217.538 1.31944 217.538 1.9526 217.929 2.34313L223.586 7.99998L217.929 13.6568C217.538 14.0474 217.538 14.6805 217.929 15.071C218.319 15.4616 218.953 15.4616 219.343 15.071L225.707 8.70709ZM8.74228e-08 9L2.44565 9L2.44565 7L-8.74228e-08 7L8.74228e-08 9ZM7.33696 9L12.2283 9L12.2283 7L7.33696 7L7.33696 9ZM17.1196 9L22.0109 9L22.0109 7L17.1196 7L17.1196 9ZM26.9022 9L31.7935 9L31.7935 7L26.9022 7L26.9022 9ZM36.6848 9L41.5761 9L41.5761 7L36.6848 7L36.6848 9ZM46.4674 9L51.3587 9L51.3587 7L46.4674 7L46.4674 9ZM56.25 9L61.1413 8.99999L61.1413 6.99999L56.25 7L56.25 9ZM66.0326 8.99999L70.9239 8.99999L70.9239 6.99999L66.0326 6.99999L66.0326 8.99999ZM75.8152 8.99999L80.7065 8.99999L80.7065 6.99999L75.8152 6.99999L75.8152 8.99999ZM85.5978 8.99999L90.4891 8.99999L90.4891 6.99999L85.5978 6.99999L85.5978 8.99999ZM95.3804 8.99999L100.272 8.99999L100.272 6.99999L95.3804 6.99999L95.3804 8.99999ZM105.163 8.99999L110.054 8.99999L110.054 6.99999L105.163 6.99999L105.163 8.99999ZM114.946 8.99999L119.837 8.99999L119.837 6.99999L114.946 6.99999L114.946 8.99999ZM124.728 8.99999L129.62 8.99999L129.62 6.99999L124.728 6.99999L124.728 8.99999ZM134.511 8.99999L139.402 8.99999L139.402 6.99999L134.511 6.99999L134.511 8.99999ZM144.294 8.99999L149.185 8.99999L149.185 6.99999L144.294 6.99999L144.294 8.99999ZM154.076 8.99999L158.967 8.99999L158.967 6.99999L154.076 6.99999L154.076 8.99999ZM163.859 8.99999L168.75 8.99999L168.75 6.99999L163.859 6.99999L163.859 8.99999ZM173.641 8.99998L178.533 8.99998L178.533 6.99998L173.641 6.99998L173.641 8.99998ZM183.424 8.99998L188.315 8.99998L188.315 6.99998L183.424 6.99998L183.424 8.99998ZM193.207 8.99998L198.098 8.99998L198.098 6.99998L193.207 6.99998L193.207 8.99998ZM202.989 8.99998L207.881 8.99998L207.881 6.99998L202.989 6.99998L202.989 8.99998ZM212.772 8.99998L217.663 8.99998L217.663 6.99998L212.772 6.99998L212.772 8.99998ZM222.554 8.99998L225 8.99998L225 6.99998L222.554 6.99998L222.554 8.99998Z" fill="#FE7B5D"/>
</svg>
